<?xml version="1.0" standalone="no"?>
<!DOCTYPE svg PUBLIC "-//W3C//DTD SVG 20010904//EN"
 "http://www.w3.org/TR/2001/REC-SVG-20010904/DTD/svg10.dtd">
<svg version="1.0" xmlns="http://www.w3.org/2000/svg"
 width="300.000000pt" height="273.000000pt" viewBox="0 0 300.000000 273.000000"
 preserveAspectRatio="xMidYMid meet">
<metadata>
Created by potrace 1.10, written by Peter Selinger 2001-2011
</metadata>
<g transform="translate(0.000000,273.000000) scale(0.100000,-0.100000)"
fill="#FFFFFF" stroke="none">
<path d="M1360 2625 c-139 -22 -262 -62 -287 -92 -44 -53 -58 -126 -58 -290 1
-84 4 -155 7 -159 4 -3 31 5 60 19 48 23 158 67 199 80 10 3 18 22 22 50 22
156 143 311 288 368 30 12 63 25 74 29 33 14 -211 9 -305 -5z m134 -21 c11 -4
3 -16 -34 -45 -86 -68 -149 -170 -180 -291 -7 -26 -18 -52 -24 -56 -21 -17
-198 -83 -205 -77 -13 13 -9 230 5 285 19 72 38 98 82 117 35 15 55 21 144 44
31 7 116 20 185 28 6 0 18 -2 27 -5z"/>
<path d="M1764 2595 c-156 -28 -287 -121 -349 -248 -19 -40 -38 -87 -42 -106
-5 -30 -4 -33 11 -28 91 35 340 67 519 67 284 0 524 -63 661 -172 45 -36 41
-28 -23 56 -140 184 -349 334 -571 409 -104 35 -125 37 -206 22z m206 -53
c179 -64 334 -164 462 -297 25 -26 6 -32 -40 -12 -45 19 -171 53 -232 62 -67
10 -443 14 -492 5 -24 -4 -79 -13 -123 -20 -44 -6 -90 -14 -102 -17 -18 -4
-23 -1 -23 13 1 39 41 107 94 159 74 72 160 115 261 130 84 12 105 10 195 -23z"/>
<path d="M924 2475 c-39 -23 -98 -62 -130 -86 -61 -44 -234 -215 -234 -230 0
-5 11 -9 25 -9 59 0 127 -65 177 -169 l23 -46 85 53 c57 36 84 59 83 70 -2 9
-3 78 -3 153 -1 138 9 207 37 266 9 19 14 35 12 37 -2 2 -36 -16 -75 -39z m10
-52 c-4 -10 -9 -98 -12 -195 l-4 -178 -54 -31 c-30 -17 -58 -29 -63 -27 -5 2
-29 32 -53 68 -23 36 -60 76 -80 89 -21 13 -38 31 -38 39 0 22 129 142 215
200 82 55 102 63 89 35z"/>
<path d="M1835 2213 c-130 -6 -445 -60 -467 -82 -12 -11 20 -130 50 -185 50
-94 179 -211 377 -341 99 -65 230 -151 290 -191 300 -198 480 -394 563 -614 9
-24 10 -23 31 25 88 198 115 331 116 555 0 318 -55 478 -216 623 -161 146
-432 222 -744 210z m240 -38 c82 -8 229 -44 298 -74 168 -72 311 -224 353
-375 61 -216 56 -495 -12 -726 -20 -68 -44 -120 -55 -120 -4 0 -24 27 -44 61
-106 181 -281 349 -538 514 -181 117 -414 273 -442 295 -76 64 -169 168 -195
219 -36 72 -46 123 -28 139 25 20 242 62 363 70 131 8 193 7 300 -3z"/>
<path d="M1180 2067 c-58 -24 -115 -48 -126 -55 l-22 -12 29 -137 c93 -438
240 -868 416 -1212 151 -296 269 -447 378 -484 45 -16 49 -15 118 10 226 81
447 247 582 437 l49 69 -12 56 c-17 82 -85 211 -153 293 -116 138 -252 243
-574 443 -308 191 -402 268 -484 392 -37 56 -72 144 -78 201 -3 23 -8 42 -12
42 -3 -1 -53 -20 -111 -43z m110 -67 c40 -126 86 -196 189 -293 67 -62 327
-237 539 -362 115 -68 290 -207 368 -294 89 -98 161 -233 178 -332 5 -30 1
-42 -33 -88 -75 -100 -136 -162 -236 -240 -137 -106 -326 -201 -401 -201 -49
0 -167 89 -208 157 -6 11 -29 46 -51 79 -57 86 -233 440 -287 579 -104 267
-193 561 -253 840 -14 65 -23 125 -21 132 8 19 146 82 175 80 19 -2 27 -12 41
-57z"/>
<path d="M533 2081 c-37 -17 -47 -30 -86 -108 -95 -189 -135 -342 -143 -543
l-5 -135 24 75 c28 91 54 143 118 236 45 65 188 214 250 259 l27 20 -20 71
c-21 78 -58 130 -98 139 -14 3 -43 -3 -67 -14z m83 -29 c18 -11 53 -83 60
-121 6 -30 3 -37 -27 -63 -114 -98 -217 -213 -264 -295 -34 -58 -47 -42 -33
42 16 103 90 301 145 388 30 48 86 71 119 49z"/>
<path d="M882 1922 l-72 -45 7 -51 c16 -106 6 -334 -22 -516 -39 -251 -45
-514 -15 -660 38 -189 135 -349 245 -403 74 -36 189 -76 285 -99 93 -21 450
-39 450 -22 0 5 -16 18 -36 29 -85 46 -209 211 -313 415 -173 340 -396 1027
-437 1348 -4 28 -9 52 -13 51 -3 -1 -39 -21 -79 -47z m67 -44 c9 -29 16 -65
26 -133 2 -11 4 -20 5 -20 1 0 3 -7 5 -15 1 -8 13 -53 24 -100 12 -47 23 -92
25 -100 14 -57 34 -126 82 -270 57 -177 57 -177 110 -320 34 -91 45 -117 84
-205 9 -22 25 -58 35 -80 27 -61 158 -295 180 -321 6 -6 30 -35 55 -65 25 -29
53 -61 63 -71 9 -10 17 -21 17 -24 0 -4 -60 -4 -132 -1 -192 7 -428 73 -530
147 -103 74 -190 267 -204 450 -14 193 -8 311 25 521 11 68 23 147 27 174 4
28 8 134 8 237 l-1 186 36 21 c47 27 48 27 60 -11z"/>
<path d="M612 1713 c-157 -157 -240 -304 -264 -473 -25 -181 47 -390 212 -608
52 -69 219 -242 233 -242 3 0 -10 33 -29 74 -58 121 -78 239 -77 456 0 126 6
219 17 290 21 130 35 600 18 600 -6 0 -56 -44 -110 -97z m89 -10 c2 -74 -1
-239 -7 -308 -5 -76 -9 -111 -24 -225 -27 -208 -21 -417 16 -568 9 -35 14 -66
11 -69 -11 -11 -114 107 -168 193 -59 92 -126 241 -144 316 -20 88 -17 173 10
279 17 67 64 169 77 169 4 0 8 7 8 15 0 29 186 235 213 235 4 0 7 -17 8 -37z"/>
</g>
</svg>
